<svg xmlns="http://www.w3.org/2000/svg" viewBox="0 0 64 64" role="img" aria-label="Verify V cut favicon">
  <defs>
    <linearGradient id="v-cut-bg" x1="10" y1="10" x2="54" y2="54" gradientUnits="userSpaceOnUse">
      <stop offset="0" stop-color="#2B63FF" />
      <stop offset="1" stop-color="#17E4C8" />
    </linearGradient>
    <linearGradient id="v-cut-mark" x1="17" y1="17" x2="41" y2="45" gradientUnits="userSpaceOnUse">
      <stop offset="0" stop-color="#FFFFFF" />
      <stop offset="1" stop-color="#DFFFF8" />
    </linearGradient>
  </defs>
  <rect x="6" y="6" width="52" height="52" rx="18" fill="url(#v-cut-bg)" />
  <path
    fill="url(#v-cut-mark)"
    d="M18.8 18.4c1.7 0 2.7.8 3.3 2.2L32 42.3l4.7-10.6-4.1-9.2c-.9-2 0-4.1 2.3-4.1h3.2c1.5 0 2.5.8 3.1 2.2l2.1 4.7 2-4.7c.6-1.4 1.6-2.2 3.1-2.2h2.8c2.3 0 3.3 2.1 2.4 4.1L45.1 42l8.2 8.1c1.8 1.8.6 4.9-2 4.9h-3.5c-.9 0-1.7-.3-2.3-1L40.8 49c-2.1 3.9-5.3 6-8.8 6-3.6 0-6.7-2.1-8.8-6l-6.6-14.8c-1-2 .1-3.8 2.2-3.8h3.1c1.5 0 2.5.7 3.1 2.1l5 11.4 1.9 4.2c-1.8-1.2-3.4-3.2-4.7-6l-10-21.5c-.9-1.9.2-4.2 2.6-4.2Z"
  />
</svg>
