<svg width="760" height="520" viewBox="0 0 760 520" fill="none" xmlns="http://www.w3.org/2000/svg">
  <defs>
    <linearGradient id="g1" x1="0" y1="0" x2="1" y2="1">
      <stop offset="0" stop-color="#2F6BFF"/>
      <stop offset="1" stop-color="#25B3FF"/>
    </linearGradient>
    <linearGradient id="g2" x1="0" y1="0" x2="1" y2="1">
      <stop offset="0" stop-color="#111827" stop-opacity="0.9"/>
      <stop offset="1" stop-color="#111827" stop-opacity="0.65"/>
    </linearGradient>
  </defs>

  <rect x="210" y="140" width="360" height="230" rx="18" fill="#1F2937" opacity="0.12"/>
  <rect x="230" y="160" width="320" height="190" rx="14" fill="#0F172A" opacity="0.9"/>

  <rect x="256" y="188" width="120" height="26" rx="8" fill="#2F6BFF" opacity="0.95"/>
  <circle cx="394" cy="201" r="7" fill="#E5E7EB" opacity="0.9"/>
  <rect x="416" y="194" width="110" height="14" rx="7" fill="#E5E7EB" opacity="0.35"/>

  <rect x="256" y="236" width="270" height="16" rx="8" fill="#E5E7EB" opacity="0.18"/>
  <rect x="256" y="262" width="210" height="16" rx="8" fill="#E5E7EB" opacity="0.14"/>

  <rect x="448" y="286" width="110" height="38" rx="12" fill="url(#g1)"/>
  <path d="M476 305h54" stroke="#fff" stroke-width="4" stroke-linecap="round" opacity="0.9"/>
  <path d="M503 278v54" stroke="#fff" stroke-width="4" stroke-linecap="round" opacity="0.9"/>

  <circle cx="176" cy="352" r="48" fill="#111827" opacity="0.08"/>
  <circle cx="176" cy="352" r="32" fill="url(#g1)" opacity="0.35"/>

  <path d="M128 436c10-38 28-62 48-62s38 24 48 62" fill="#111827" opacity="0.16"/>
  <circle cx="176" cy="328" r="18" fill="#111827" opacity="0.55"/>
  <path d="M156 380c12 8 28 8 40 0l6 54h-52l6-54z" fill="url(#g2)"/>

  <rect x="84" y="206" width="120" height="64" rx="14" fill="#ffffff" opacity="0.9"/>
  <circle cx="110" cy="238" r="10" fill="url(#g1)"/>
  <rect x="130" y="226" width="60" height="10" rx="5" fill="#111827" opacity="0.18"/>
  <rect x="130" y="244" width="48" height="10" rx="5" fill="#111827" opacity="0.12"/>

  <rect x="560" y="210" width="140" height="68" rx="14" fill="#ffffff" opacity="0.9"/>
  <rect x="580" y="232" width="88" height="12" rx="6" fill="#111827" opacity="0.18"/>
  <rect x="580" y="252" width="64" height="12" rx="6" fill="#111827" opacity="0.12"/>
  <circle cx="690" cy="244" r="14" fill="url(#g1)" opacity="0.9"/>
</svg>

